<?xml version="1.0" standalone="no"?>
<!DOCTYPE svg PUBLIC "-//W3C//DTD SVG 20010904//EN"
 "http://www.w3.org/TR/2001/REC-SVG-20010904/DTD/svg10.dtd">
<svg version="1.0" xmlns="http://www.w3.org/2000/svg"
 width="500.000000pt" height="500.000000pt" viewBox="0 0 500.000000 500.000000"
 preserveAspectRatio="xMidYMid meet">

<g transform="translate(0.000000,500.000000) scale(0.100000,-0.100000)"
fill="#000000" stroke="none">
<path d="M3027 4825 c-336 -46 -626 -191 -863 -432 -211 -214 -350 -478 -411
-778 -28 -140 -25 -436 5 -573 44 -197 117 -376 209 -515 l47 -71 -86 -80
c-115 -109 -678 -647 -853 -816 -77 -74 -292 -281 -477 -458 -379 -363 -370
-352 -343 -457 49 -186 286 -399 460 -412 51 -4 65 -2 92 19 18 12 382 426
808 918 427 492 781 899 788 903 7 5 43 -9 92 -37 344 -197 759 -244 1159
-130 228 66 454 201 632 378 511 512 586 1294 181 1901 -126 189 -354 388
-572 497 -264 133 -569 183 -868 143z m503 -248 c334 -88 603 -282 778 -561
203 -323 247 -742 117 -1106 -241 -671 -1005 -1014 -1671 -750 -402 160 -705
533 -779 959 -22 121 -19 338 4 458 83 422 367 772 761 939 173 73 299 94 520
90 147 -3 190 -8 270 -29z"/>
<path d="M3710 3530 l0 -500 85 0 85 0 0 150 c0 121 3 150 14 150 8 0 64 -67
126 -150 l112 -150 94 0 c52 0 94 4 94 8 0 5 -51 78 -113 163 -62 85 -123 168
-135 186 l-23 32 121 156 c66 86 120 160 120 165 0 6 -38 10 -87 10 l-88 0
-103 -135 c-57 -74 -109 -135 -117 -135 -13 0 -15 41 -15 275 l0 275 -85 0
-85 0 0 -500z"/>
<path d="M2397 3750 c-94 -24 -169 -87 -215 -179 -25 -52 -27 -65 -27 -181 0
-114 2 -130 26 -181 55 -117 154 -180 296 -187 94 -5 166 13 222 55 36 28 91
107 91 133 0 13 -103 80 -123 80 -3 0 -15 -17 -27 -37 -32 -57 -65 -77 -135
-81 -50 -3 -66 0 -94 20 -61 41 -76 79 -76 193 0 82 4 107 21 139 33 64 64 81
146 81 l70 0 44 -48 44 -49 60 43 c33 23 60 47 60 54 0 30 -61 94 -114 120
-46 22 -73 28 -144 31 -48 2 -104 -1 -125 -6z"/>
<path d="M3137 3750 c-94 -24 -173 -90 -216 -180 -24 -50 -26 -66 -26 -180 0
-116 2 -129 28 -185 32 -68 56 -97 108 -130 83 -54 232 -71 338 -39 56 16 131
76 156 124 13 25 12 27 -47 65 l-60 39 -27 -31 c-41 -49 -84 -66 -157 -61 -93
6 -147 52 -160 136 l-7 42 235 0 235 0 6 33 c8 53 -10 185 -33 233 -43 87
-129 135 -254 140 -45 2 -98 -1 -119 -6z m173 -145 c34 -18 59 -59 62 -107 l3
-33 -152 -3 c-106 -2 -153 1 -153 8 0 32 45 111 74 130 38 24 124 27 166 5z"/>
<path d="M2500 2863 c0 -75 0 -76 -20 -58 -10 9 -39 20 -63 22 -87 10 -137
-45 -137 -152 0 -94 41 -147 114 -149 32 -1 53 6 75 22 30 22 31 22 31 2 0
-15 7 -20 25 -20 l25 0 0 205 0 205 -25 0 c-24 0 -25 -2 -25 -77z m-35 -96
c54 -46 43 -166 -18 -192 -30 -13 -80 -6 -100 14 -17 17 -26 85 -17 126 16 72
82 98 135 52z"/>
<path d="M2980 2755 c0 -185 0 -186 25 -211 31 -31 69 -29 73 4 2 15 -1 23
-10 21 -38 -5 -38 -3 -38 186 l0 185 -25 0 -25 0 0 -185z"/>
<path d="M3776 2924 c-10 -26 19 -52 42 -38 9 6 17 20 17 30 0 26 -50 32 -59
8z"/>
<path d="M2647 2824 c-13 -14 -8 -213 7 -248 25 -59 112 -72 164 -24 l22 21 0
-21 c0 -15 6 -22 20 -22 19 0 20 7 20 150 0 143 -1 150 -20 150 -18 0 -20 -7
-20 -82 0 -89 -12 -149 -34 -167 -23 -19 -70 -23 -91 -7 -17 12 -21 29 -25
133 -4 96 -8 118 -20 121 -9 1 -19 0 -23 -4z"/>
<path d="M3140 2706 c0 -118 1 -127 24 -153 33 -38 102 -40 140 -4 26 24 26
24 26 3 0 -17 6 -22 25 -22 l26 0 -3 148 c-3 139 -4 147 -23 147 -18 0 -20 -8
-25 -107 -4 -90 -8 -111 -25 -127 -31 -31 -67 -35 -96 -13 -23 19 -24 27 -27
136 -3 106 -5 116 -23 116 -18 0 -19 -9 -19 -124z"/>
<path d="M3503 2810 c-33 -20 -42 -43 -23 -55 6 -3 22 3 36 14 32 25 86 27
108 5 9 -8 16 -19 16 -23 0 -13 -35 -41 -51 -41 -31 0 -91 -22 -110 -41 -21
-21 -26 -78 -9 -109 15 -29 73 -44 115 -30 19 6 39 19 44 27 7 14 10 13 20 -5
16 -30 71 -31 71 -2 0 13 -7 20 -20 20 -19 0 -20 7 -20 105 0 99 -2 107 -25
130 -31 32 -104 34 -152 5z m132 -176 c-12 -67 -80 -98 -120 -54 -29 32 -13
67 38 81 23 6 51 14 62 19 25 9 29 -1 20 -46z"/>
<path d="M3787 2824 c-4 -4 -7 -87 -7 -185 0 -161 -2 -179 -18 -188 -10 -5
-26 -9 -37 -8 -11 1 -21 -5 -23 -14 -4 -23 42 -33 76 -17 47 23 52 47 49 238
-2 149 -4 175 -17 178 -9 1 -19 0 -23 -4z"/>
<path d="M3960 2812 c-38 -21 -44 -30 -31 -51 7 -12 14 -10 36 8 52 40 136 21
120 -28 -6 -19 -57 -41 -97 -41 -9 0 -30 -12 -47 -26 -52 -44 -40 -120 24
-144 35 -13 83 -4 111 22 21 19 21 19 27 -1 4 -16 13 -21 41 -21 20 0 36 3 36
8 0 13 -15 28 -32 35 -16 6 -18 20 -18 111 0 101 -1 105 -26 125 -34 26 -97
28 -144 3z m126 -188 c-8 -38 -38 -64 -76 -64 -33 0 -50 17 -50 51 0 33 14 45
69 58 23 5 46 12 49 16 11 10 15 -23 8 -61z"/>
<path d="M4334 4750 c-56 -22 -72 -103 -29 -145 31 -32 86 -34 116 -4 20 20
20 22 5 31 -13 7 -23 5 -37 -8 -28 -25 -53 -8 -57 38 -4 46 18 66 55 49 18 -8
29 -9 37 -1 24 24 -49 56 -90 40z"/>
<path d="M4511 4749 c-35 -14 -50 -39 -51 -80 0 -54 32 -89 80 -89 57 0 85 27
85 84 0 69 -54 110 -114 85z m57 -41 c7 -7 12 -27 12 -45 0 -56 -63 -69 -76
-16 -13 51 31 94 64 61z"/>
<path d="M4736 4744 c-14 -7 -26 -9 -26 -3 0 5 -9 9 -20 9 -18 0 -20 -7 -20
-85 0 -78 2 -85 20 -85 17 0 20 7 20 53 0 59 18 94 44 84 12 -5 16 -20 16 -72
0 -63 1 -65 25 -65 24 0 25 2 25 64 0 56 3 66 20 71 33 10 40 -3 40 -71 0 -57
2 -64 20 -64 18 0 20 7 20 75 0 68 -2 76 -25 91 -22 14 -27 14 -55 1 -16 -9
-32 -12 -35 -7 -9 15 -44 18 -69 4z"/>
<path d="M4197 4617 c-8 -21 8 -39 29 -35 27 5 25 42 -2 46 -12 2 -24 -3 -27
-11z"/>
</g>
</svg>
